<?xml version="1.0" standalone="no"?>
<!DOCTYPE svg PUBLIC "-//W3C//DTD SVG 20010904//EN"
 "http://www.w3.org/TR/2001/REC-SVG-20010904/DTD/svg10.dtd">
<svg version="1.0" xmlns="http://www.w3.org/2000/svg"
 width="762.000000pt" height="1280.000000pt" viewBox="0 0 762.000000 1280.000000"
 preserveAspectRatio="xMidYMid meet">
<metadata>
Created by potrace 1.15, written by Peter Selinger 2001-2017
</metadata>
<g transform="translate(0.000000,1280.000000) scale(0.100000,-0.100000)"
fill="#000000" stroke="none">
<path d="M3350 12794 c-449 -21 -865 -54 -1160 -94 -665 -89 -838 -119 -1125
-192 -212 -54 -364 -106 -513 -178 -154 -74 -252 -142 -341 -235 -116 -123
-161 -245 -161 -441 0 -49 -10 -199 -22 -334 -28 -325 -31 -713 -5 -849 49
-256 161 -425 383 -578 l89 -61 49 -148 c250 -761 762 -1406 1473 -1853 404
-254 574 -382 744 -558 117 -121 177 -200 238 -314 183 -339 139 -707 -128
-1063 -179 -239 -365 -398 -920 -786 -422 -296 -589 -436 -765 -641 -265 -309
-467 -673 -619 -1115 -50 -147 -120 -399 -147 -536 -10 -51 -19 -65 -74 -120
-123 -124 -200 -300 -246 -566 -76 -437 -36 -1054 85 -1307 195 -409 893 -668
2055 -765 405 -33 1153 -53 2080 -54 656 -1 797 4 1170 40 736 71 1277 230
1654 487 121 82 283 244 318 317 90 190 136 507 125 859 -15 439 -86 748 -214
924 -19 26 -38 47 -41 47 -4 0 -6 -39 -4 -87 l3 -88 -21 34 c-19 30 -20 39
-11 83 31 143 -4 340 -124 703 -210 630 -583 1135 -1140 1542 -114 83 -264
177 -437 275 -381 213 -557 335 -718 498 -107 107 -173 198 -235 325 -84 174
-100 245 -100 460 0 133 5 200 17 256 52 234 159 422 336 590 135 130 243 205
627 439 357 217 494 315 706 506 453 407 798 966 981 1593 l31 106 65 50 c120
93 208 222 230 336 14 71 50 320 63 434 17 159 23 529 10 693 -29 359 -92 530
-253 693 -281 282 -811 459 -1658 553 -382 43 -780 79 -1107 101 -212 15
-1059 27 -1243 19z m3569 -3121 c-157 -447 -396 -835 -713 -1161 -220 -226
-418 -380 -706 -550 -586 -345 -684 -410 -839 -557 -152 -146 -249 -291 -299
-452 -46 -148 -57 -227 -57 -438 0 -162 4 -205 23 -295 85 -383 301 -675 747
-1012 55 -42 268 -189 473 -327 516 -347 718 -506 896 -706 159 -179 243 -311
406 -640 157 -317 215 -494 227 -693 l6 -103 -101 48 c-76 37 -103 55 -112 75
-22 51 -96 148 -166 220 -213 218 -453 392 -1004 728 -300 183 -521 328 -636
417 -50 39 -169 153 -265 254 -301 318 -511 524 -599 588 -116 85 -246 148
-343 166 -86 16 -217 20 -217 6 0 -5 -18 -11 -39 -15 -58 -9 -229 -98 -312
-163 -130 -100 -207 -174 -392 -378 -381 -420 -375 -415 -884 -743 -539 -347
-766 -511 -956 -692 -148 -140 -222 -232 -273 -336 -36 -74 -50 -93 -79 -107
l-35 -17 0 31 c0 60 78 331 150 522 129 342 308 660 524 932 106 133 384 410
521 519 61 48 232 172 380 276 149 104 324 231 390 282 162 125 405 369 477
478 141 215 193 375 205 635 25 552 -250 983 -875 1370 -443 274 -624 409
-871 650 -281 274 -463 520 -627 846 -62 124 -160 357 -152 364 2 1 42 -10 91
-26 182 -61 410 -112 672 -153 245 -38 322 -46 1040 -116 396 -38 731 -53
1225 -53 628 0 1032 25 1650 104 677 86 1020 153 1340 264 69 24 128 44 132
44 4 1 -6 -38 -23 -86z m-6531 -7080 c-12 -11 -12 -4 -3 44 l10 58 3 -44 c2
-28 -2 -49 -10 -58z"/>
<path d="M3560 8523 c-25 -1 -112 -8 -195 -13 -82 -6 -204 -18 -270 -26 -150
-19 -491 -87 -567 -112 -127 -42 -251 -139 -263 -205 -22 -118 98 -235 633
-621 311 -223 405 -299 542 -436 138 -138 224 -253 296 -394 l48 -94 45 77
c24 42 56 87 70 102 14 14 62 69 105 123 102 126 253 264 446 408 183 136 216
158 420 273 85 48 194 115 243 148 164 112 282 254 308 373 11 50 10 56 -16
109 -22 46 -39 65 -86 95 -167 108 -533 166 -1124 178 -201 4 -299 9 -250 13
46 3 -9 5 -130 5 -115 0 -230 -1 -255 -3z"/>
<path d="M3766 6575 c-51 -117 -71 -289 -44 -378 7 -23 31 -61 54 -85 54 -57
83 -55 104 5 12 37 12 54 -4 155 -17 109 -52 245 -79 310 l-14 33 -17 -40z"/>
</g>
</svg>
